# xmcd
#
# Track frame offsets:
#	150
#	12667
#	36505
#	63394
#	87824
#	113924
#	135154
#	155799
#	180378
#	212567
#	237803
#
# Disc length: 3513 seconds
#
# Revision: 1
# Processed by: cddbd v1.5.2PL0 Copyright (c) Steve Scherf et al.
# Submitted via: audiograbber 1.83.01
#
DISCID=8e0db70b
DTITLE=Front Line Assembly - Echogenetic
DYEAR=2013
DGENRE=Industrial
TTITLE0=Resonance
TTITLE1=Leveled
TTITLE2=Killing Grounds
TTITLE3=Blood
TTITLE4=Deadened
TTITLE5=Ghosts
TTITLE6=Echogenetic
TTITLE7=Exhale
TTITLE8=Exo
TTITLE9=Prototype
TTITLE10=Heartquake
EXTD=
EXTT0=
EXTT1=
EXTT2=
EXTT3=
EXTT4=
EXTT5=
EXTT6=
EXTT7=
EXTT8=
EXTT9=
EXTT10=
PLAYORDER=
